# xmcd
#
# Track frame offsets:
#	150
#	12376
#	24744
#	36698
#	49012
#	61447
#	74141
#	88891
#	100547
#	112185
#	125699
#	137803
#
# Disc length: 2093 seconds
#
# Revision: 0
# Processed by: cddbd v1.4PL0 Copyright (c) Steve Scherf et al.
# Submitted via: dBpowerAMP V4.0
#
DISCID=ba082b0c
DTITLE=Otis Redding - 36 All-Time Favorites CD 3
DYEAR=2002
DGENRE=R&B
TTITLE0=(Sittin' On) The Dock Of The Bay
TTITLE1=Mr. Pitiful
TTITLE2=Security
TTITLE3=Fa-Fa-Fa-Fa-Fa (Sad Song)
TTITLE4=Happy Song (Dum Dum)
TTITLE5=I Can't Turn You Loose
TTITLE6=I've Got Dreams To Remember
TTITLE7=Day Tripper
TTITLE8=Papa's Got A Brand New Bag
TTITLE9=Down In The Valley
TTITLE10=Shake
TTITLE11=Change Is Gonna Come
EXTD=Genre is "R&B", (wasn't available in submit select window).
EXTT0=
EXTT1=
EXTT2=
EXTT3=
EXTT4=
EXTT5=
EXTT6=
EXTT7=
EXTT8=
EXTT9=
EXTT10=
EXTT11=
PLAYORDER=
